<svg xmlns="http://www.w3.org/2000/svg" width="48" height="46" fill="none" viewBox="0 0 48 46"><ellipse cx="24" cy="23" fill="#C4C4C4" rx="24" ry="23"/><path stroke="#000" stroke-width="2" d="M23.5 22.6512C27.7681 22.6512 31.228 19.3715 31.228 15.3256C31.228 11.2798 27.7681 8 23.5 8C19.2319 8 15.772 11.2798 15.772 15.3256C15.772 19.3715 19.2319 22.6512 23.5 22.6512Z"/><path stroke="#000" stroke-linecap="round" stroke-linejoin="round" stroke-width="2" d="M31.228 25.5815H31.7721C32.902 25.5818 33.993 25.9733 34.84 26.6823C35.687 27.3913 36.2317 28.369 36.3718 29.4319L36.9761 34.0089C37.0305 34.4213 36.9917 34.8398 36.8624 35.2369C36.733 35.6339 36.5161 36.0003 36.2259 36.3118C35.9358 36.6233 35.5791 36.8727 35.1795 37.0435C34.7798 37.2143 34.3465 37.3026 33.9081 37.3025H13.0919C12.6535 37.3026 12.2202 37.2143 11.8205 37.0435C11.4209 36.8727 11.0642 36.6233 10.7741 36.3118C10.4839 36.0003 10.267 35.6339 10.1376 35.2369C10.0083 34.8398 9.9695 34.4213 10.0239 34.0089L10.6266 29.4319C10.7668 28.3685 11.312 27.3904 12.1596 26.6813C13.0073 25.9722 14.099 25.5811 15.2295 25.5815H15.772"/></svg>